<svg xmlns="http://www.w3.org/2000/svg" width="1101.896mm" height="200mm" viewBox="0 0 1101.896 200"><path d="m-86.056 79.548-35.417 100h63.025c50.18 0 61.185-23.813 70.461-50.006 9.281-26.19 15.141-49.994-35.043-49.994zm36.77 18.76h8.638c16.806 0 17.416 4.204 7.847 31.234-9.58 27.037-13.166 31.236-29.975 31.236h-8.636zM96.19 77.586c-44.354 0-64.681 14.57-77.931 51.956-13.242 37.403-3.23 51.969 41.121 51.969 44.354 0 64.684-14.566 77.93-51.969 13.246-37.387 3.23-51.956-41.12-51.956zm-6.252 17.646c13.31 0 12.128 7.28 2.552 34.31-9.572 27.037-13.553 34.317-26.858 34.317s-12.126-7.28-2.554-34.317c9.575-27.03 13.557-34.31 26.86-34.31zM221.709 77.586c-44.349 0-64.68 14.57-77.926 51.956-13.241 37.403-3.23 51.969 41.122 51.969 44.348 0 64.68-14.566 77.928-51.969 13.241-37.387 3.227-51.956-41.124-51.956zm-6.247 17.646c13.305 0 12.123 7.28 2.55 34.31-9.573 27.037-13.553 34.317-26.857 34.317-13.305 0-12.13-7.28-2.553-34.317 9.57-27.03 13.557-34.31 26.86-34.31zM373.588 150.691c12.943-36.546-61.436-26.889-54.443-46.637 1.585-4.48 7.325-8.822 16.664-8.822 8.402 0 10.632 4.9 8.551 10.78l-.844 2.388h40.617c7.587-21.433-5.199-30.814-43.015-30.814-36.643 0-58.54 11.061-65.678 31.231-12.545 35.435 59.081 25.627 52.09 45.378-1.935 5.457-8.56 9.664-17.428 9.664-8.406 0-13.15-3.08-10.122-11.629l.84-2.38h-42.018l-1.233 3.507c-7.349 20.726 10.096 28.154 46.049 28.154 38.278 0 62.425-9.53 69.97-30.82M436.7 79.548l-76.037 100h46.222l10.632-17.513h34.547l-1.76 17.513h46.208l-5.198-100zm19.829 20.448H457l-3.125 42.434h-24.278zM614.328 79.548l-21.822 61.621h-.468l-6.18-61.621h-48.556l-35.426 100h40.619l21.879-61.766h.468l7.07 61.765h47.619l35.418-99.999z" style="fill:#005eb8;fill-opacity:1;fill-rule:nonzero;stroke:none;stroke-width:1.25209" transform="matrix(1.33333 0 0 1.33333 195.297 -72.73)"/></svg>